# xmcd CD database file
#
# Track frame offsets:
#	182
#	14165
#	24757
#	34892
#	47555
#	60412
#	72667
#	83715
#	95865
#	106170
#	116690
#	127267
#	137972
#	149412
#	159855
#	172555
#	181780
#	193915
#	204820
#	215972
#
# Disc length: 3048 seconds
#
# Revision: 1
# Processed by: cddbd v1.5.1PL0 Copyright (c) Steve Scherf et al.
# Submitted via: CDex 1.51
#
DISCID=210be614
DTITLE=Jimmy Reed - Big Boss Man
DYEAR=1900
DGENRE=Blues
TTITLE0=You Don't Have To Go
TTITLE1=I Ain't Got You
TTITLE2=Ain't That Loving You Baby
TTITLE3=Can't Stand To See You Go
TTITLE4=You Got Me Dizzy
TTITLE5=Honest I Do
TTITLE6=Down In Virgina
TTITLE7=I'm Gonna Get My Baby
TTITLE8=I Wanna Be Loved
TTITLE9=Going To New York
TTITLE10=Take Out Some Insurance
TTITLE11=Baby, What You Want Me To Do
TTITLE12=Hush Hush
TTITLE13=Found Love
TTITLE14=Big Boss Man
TTITLE15=I'm A Love You
TTITLE16=Bright Lights, Big City
TTITLE17=Aw Shucks, Hush Your Mouth
TTITLE18=Good Lover
TTITLE19=Shame, Shame, Shame
EXTD=
EXTT0=
EXTT1=
EXTT2=
EXTT3=
EXTT4=
EXTT5=
EXTT6=
EXTT7=
EXTT8=
EXTT9=
EXTT10=
EXTT11=
EXTT12=
EXTT13=
EXTT14=
EXTT15=
EXTT16=
EXTT17=
EXTT18=
EXTT19=
PLAYORDER=
